.
 
http://www.scenetime.com    -  Hottest private tracker on the net. !!!

New release on http://www.scenetime.com

        Seed back for speed


...................................NFO:.................................................








































          
          
              
              
                    
                    
                    
                    

Dont.Go.In.The.Woods.2010.VODRiP.XviD-SiC

Poster:
[img]http://img210.imageshack.us/img210/3726/dontgointhewoods2010mov.jpg[/img]

IMDB Link: 
http://www.imdb.com/title/tt1651065/

Description:
A young band heads to the woods in order to focus on writing new songs. Hoping to emerge with new music that will score them their big break, they instead find themselves in the middle of a nightmare beyond comprehension.  

MediaInfo:
General
Complete name                    : E:\Customize\Dont.Go.In.The.Woods.2010.VODRiP.XviD-SiC.avi
Format                           : AVI
Format/Info                      : Audio Video Interleave
File size                        : 1.37 GiB
Duration                         : 1h 23mn
Overall bit rate                 : 2 358 Kbps

Video
ID                               : 0
Format                           : MPEG-4 Visual
Format profile                   : Advanced Simple@L5
Format settings, BVOP            : 1
Format settings, QPel            : No
Format settings, GMC             : No warppoints
Format settings, Matrix          : Default (H.263)
Codec ID                         : XVID
Codec ID/Hint                    : XviD
Duration                         : 1h 23mn
Bit rate                         : 1 902 Kbps
Width                            : 720 pixels
Height                           : 400 pixels
Display aspect ratio             : 16:9
Frame rate                       : 30.000 fps
Color space                      : YUV
Chroma subsampling               : 4:2:0
Bit depth                        : 8 bits
Scan type                        : Progressive
Compression mode                 : Lossy
Bits/(Pixel*Frame)               : 0.220
Stream size                      : 1.10 GiB (81%)
Writing library                  : XviD 1.2.1 (UTC 2008-12-04)

Audio
ID                               : 1
Format                           : AC-3
Format/Info                      : Audio Coding 3
Mode extension                   : CM (complete main)
Codec ID                         : 2000
Duration                         : 1h 23mn
Bit rate mode                    : Constant
Bit rate                         : 448 Kbps
Channel(s)                       : 2 channels
Channel positions                : Front: L R
Sampling rate                    : 48.0 KHz
Bit depth                        : 16 bits
Compression mode                 : Lossy
Stream size                      : 266 MiB (19%)
Alignment                        : Aligned on interleaves
Interleave, duration             : 64 ms (1.92 video frames)
Interleave, preload duration     : 192 ms
Title                            : woods

Screenshots:
[img]http://img26.imageshack.us/img26/5131/vlcsnap2012010910h54m55.png[/img]
[img]http://img560.imageshack.us/img560/820/vlcsnap2012010910h55m20.png[/img]
[img]http://img821.imageshack.us/img821/5994/vlcsnap2012010910h55m53.png[/img]
[img]http://img844.imageshack.us/img844/1237/vlcsnap2012010910h56m07.png[/img]
[img]http://img694.imageshack.us/img694/6083/vlcsnap2012010910h56m18.png[/img]



Note : Being released in limited theaters soon, we thought some of you might appreciate a slasher/musical directed by Vincent D'onofrio..... We could have been dishonest, and tagged this as 2012, that's a popular thing to do these days, but we'd rather people know what they're downloading, instead of making ourselves feel special. A new method was used, so feedback is definitely welcomed.     

Source: Our own

Enjoy!

Respects to T00NG0D, CM8, Rx, ELEKTRI4KA, PA, YeFsTe, MrRep and everyone in the struggle...